<svg class="svg-icon" style="width: 1em; height: 1em;vertical-align: middle;fill: currentColor;overflow: hidden;" viewBox="0 0 1024 1024" version="1.1" xmlns="http://www.w3.org/2000/svg"><path d="M818.089303 431.237605 595.768869 431.237605l0-219.274052c0-45.202505-34.627658-82.775238-79.830163-82.775238l-1.122567 0c-45.203528 0-83.241866 37.572734-83.241866 82.775238l0 219.274052L212.666564 431.237605c-45.203528 0-83.141582 37.678134-83.141582 82.876546l0 1.122567c0 45.203528 37.938054 80.195483 83.141582 80.195483l218.907709 0 0 221.954091c0 45.203528 38.038338 80.095199 83.241866 80.095199l1.122567 0c45.202505 0 79.830163-34.891671 79.830163-80.095199L595.768869 595.432201l222.319411 0c45.202505 0 79.728856-34.992979 79.728856-80.195483l0-1.122567C897.818159 468.915739 863.286692 431.237605 818.089303 431.237605L818.089303 431.237605zM818.089303 431.237605"  /></svg>