<?xml version="1.0" encoding="UTF-8" standalone="no"?>
<svg
   xmlns:dc="http://purl.org/dc/elements/1.1/"
   xmlns:cc="http://creativecommons.org/ns#"
   xmlns:rdf="http://www.w3.org/1999/02/22-rdf-syntax-ns#"
   xmlns:svg="http://www.w3.org/2000/svg"
   xmlns="http://www.w3.org/2000/svg"
   xmlns:sodipodi="http://sodipodi.sourceforge.net/DTD/sodipodi-0.dtd"
   xmlns:inkscape="http://www.inkscape.org/namespaces/inkscape"
   viewBox="0 0 103.19 122.88"
   version="1.1"
   id="svg4"
   sodipodi:docname="book.svg"
   inkscape:version="1.0.2-2 (e86c870879, 2021-01-15)">
  <metadata
     id="metadata10">
    <rdf:RDF>
      <cc:Work
         rdf:about="">
        <dc:format>image/svg+xml</dc:format>
        <dc:type
           rdf:resource="http://purl.org/dc/dcmitype/StillImage" />
      </cc:Work>
    </rdf:RDF>
  </metadata>
  <defs
     id="defs8" />
  <sodipodi:namedview
     pagecolor="#ffffff"
     bordercolor="#666666"
     borderopacity="1"
     objecttolerance="10"
     gridtolerance="10"
     guidetolerance="10"
     inkscape:pageopacity="0"
     inkscape:pageshadow="2"
     inkscape:window-width="1500"
     inkscape:window-height="975"
     id="namedview6"
     showgrid="false"
     inkscape:zoom="5.9814454"
     inkscape:cx="51.595001"
     inkscape:cy="61.439999"
     inkscape:window-x="-7"
     inkscape:window-y="-7"
     inkscape:window-maximized="1"
     inkscape:current-layer="svg4" />
  <path
     d="m 23.74322,13.541877 h 66.905743 a 2.6852886,2.5881854 0 0 1 2.6772,2.58039 v 71.970264 c -0.121323,2.011301 -2.8147,2.058076 -5.726458,1.933344 H 22.756457 c -4.027933,0 -7.319838,3.172866 -7.319838,7.055144 0,3.882281 3.291905,7.055141 7.319838,7.055141 h 64.843248 v -7.507294 h 5.726458 v 9.541984 c 0,1.73845 -1.472055,3.15728 -3.275728,3.15728 H 23.039544 C 15.792501,109.33592 9.8638365,103.62164 9.8638365,96.636662 V 26.919366 c 0,-7.359178 6.2441045,-13.377489 13.8793835,-13.377489 z m 2.580141,10.446291 h 2.313231 c 1.18088,0 2.151466,0.756187 2.151466,1.676084 v 52.597852 c 0,0.919897 -0.970586,1.676084 -2.151466,1.676084 h -2.313231 c -1.18088,0 -2.151466,-0.756187 -2.151466,-1.676084 V 25.664252 c 0.0081,-0.927693 0.970586,-1.676084 2.151466,-1.676084 z"
     fill-rule="evenodd"
     clip-rule="evenodd"
     id="path2"
     style="stroke-width:0.794063" />
</svg>
