<svg xmlns:dc="http://purl.org/dc/elements/1.1/" xmlns:cc="http://creativecommons.org/ns#" xmlns:rdf="http://www.w3.org/1999/02/22-rdf-syntax-ns#" xmlns:svg="http://www.w3.org/2000/svg" xmlns="http://www.w3.org/2000/svg" xmlns:sodipodi="http://sodipodi.sourceforge.net/DTD/sodipodi-0.dtd" xmlns:inkscape="http://www.inkscape.org/namespaces/inkscape" version="1.1" id="Capa_1" x="0px" y="0px" viewBox="0 0 331.37 331.37" style="enable-background:new 0 0 331.37 331.37;" xml:space="preserve" sodipodi:docname="calendar.svg" inkscape:version="1.0.2-2 (e86c870879, 2021-01-15)">
   <g id="g29" transform="matrix(0.77414967,0,0,0.8263493,37.420013,28.771317)">
      <g id="Layer_5_15_">
         <g id="g26">
            <g id="g6">
               <path d="m 111.374,188.961 c 0,4.956 -4.055,9.01 -9.01,9.01 H 57.313 c -4.955,0 -9.01,-4.055 -9.01,-9.01 v -30.113 c 0,-4.956 4.055,-9.01 9.01,-9.01 h 45.051 c 4.956,0 9.01,4.055 9.01,9.01 z" id="path2" />
               <path d="m 111.374,268.091 c 0,4.956 -4.055,9.01 -9.01,9.01 H 57.313 c -4.955,0 -9.01,-4.055 -9.01,-9.01 v -30.113 c 0,-4.956 4.055,-9.01 9.01,-9.01 h 45.051 c 4.956,0 9.01,4.055 9.01,9.01 z" id="path4" />
            </g>
            <g id="g12">
               <path d="m 197.222,188.961 c 0,4.956 -4.055,9.01 -9.01,9.01 H 143.16 c -4.956,0 -9.01,-4.055 -9.01,-9.01 v -30.113 c 0,-4.956 4.055,-9.01 9.01,-9.01 h 45.052 c 4.956,0 9.01,4.055 9.01,9.01 z" id="path8" />
               <path d="m 197.222,268.091 c 0,4.956 -4.055,9.01 -9.01,9.01 H 143.16 c -4.956,0 -9.01,-4.055 -9.01,-9.01 v -30.113 c 0,-4.956 4.055,-9.01 9.01,-9.01 h 45.052 c 4.956,0 9.01,4.055 9.01,9.01 z" id="path10" />
            </g>
            <g id="g18">
               <path d="m 282.018,188.961 c 0,4.956 -4.055,9.01 -9.01,9.01 h -45.052 c -4.956,0 -9.01,-4.055 -9.01,-9.01 v -30.113 c 0,-4.956 4.055,-9.01 9.01,-9.01 h 45.052 c 4.956,0 9.01,4.055 9.01,9.01 z" id="path14" />
               <path d="m 282.018,268.091 c 0,4.956 -4.055,9.01 -9.01,9.01 h -45.052 c -4.956,0 -9.01,-4.055 -9.01,-9.01 v -30.113 c 0,-4.956 4.055,-9.01 9.01,-9.01 h 45.052 c 4.956,0 9.01,4.055 9.01,9.01 z" id="path16" />
            </g>
            <path d="m 70.786,82.453 c -5.383,0 -9.787,-4.404 -9.787,-9.788 V 19.697 c 0,-5.384 4.404,-9.788 9.787,-9.788 h 20.361 c 5.383,0 9.788,4.404 9.788,9.788 v 52.968 c 0,5.383 -4.404,9.788 -9.788,9.788 z" id="path20" />
            <path d="m 240.301,82.453 c -5.383,0 -9.787,-4.404 -9.787,-9.788 V 19.697 c 0,-5.384 4.404,-9.788 9.787,-9.788 h 20.361 c 5.383,0 9.788,4.404 9.788,9.788 v 52.968 c 0,5.383 -4.404,9.788 -9.788,9.788 z" id="path22" />
            <path d="m 321.917,49.935 c 0,0 -16.16,0 -28.491,0 -1.628,0 -4.64,0 -4.64,3.753 v 16.754 c 0,15.996 -8.86,29.01 -29.01,29.01 h -18.745 c -19.106,0 -29.01,-13.014 -29.01,-29.01 l 0.001,-15.879 c 0,-3 -2.096,-4.628 -4.596,-4.628 -23.869,0 -58.035,0 -82.751,0 -1.836,0 -5.326,0 -5.326,4.753 v 15.754 c 0,15.996 -7.976,29.01 -29.01,29.01 H 71.594 c -23.292,0 -29.01,-13.014 -29.01,-29.01 V 55.313 c 0,-4.25 -3.826,-5.378 -5.909,-5.378 -12.187,0 -27.221,0 -27.221,0 C 4.254,49.935 0,54.189 0,66.393 v 252.618 c 0,-1.804 4.254,2.45 9.454,2.45 h 312.462 c 5.2,0 9.454,-4.254 9.454,-2.45 V 66.393 c 0,-12.204 -4.254,-16.458 -9.453,-16.458 z m -11.555,241.063 c 0,5.2 -4.254,9.454 -9.454,9.454 H 30.463 c -5.2,0 -9.454,-4.254 -9.454,-9.454 V 134.464 c 0,-5.2 4.254,-9.454 9.454,-9.454 h 270.445 c 5.2,0 9.454,4.254 9.454,9.454 z" id="path24" />
         </g>
      </g>
   </g>
</svg>