<svg class="svg-icon" style="width: 1em; height: 1em;vertical-align: middle;fill: currentColor;overflow: hidden;" viewBox="0 0 1024 1024" version="1.1" xmlns="http://www.w3.org/2000/svg"><path d="M875.52 383.36c-5.12-27.52-40.32-37.76-60.16-17.92l-168.32 167.68c-23.68 23.68-62.72 23.68-87.04 0L473.6 446.72C449.28 422.4 449.28 384 473.6 360.32l169.6-168.96c19.84-19.84 10.24-55.04-17.28-60.16-99.2-19.2-205.44 9.6-282.24 86.4C258.56 301.44 232.32 422.4 264.96 529.92c5.12 17.28 1.92 36.48-10.88 49.28L83.2 749.44c-23.68 23.68-23.68 62.72 0 86.4l87.04 86.4c23.68 23.68 62.72 23.68 87.04 0l172.16-171.52c12.8-12.8 31.36-16.64 49.28-11.52 106.88 31.36 226.56 5.12 311.04-79.36C864.64 584.96 893.44 480.64 875.52 383.36z"  /></svg>