 <svg version="1.0" xmlns="http://www.w3.org/2000/svg" width="700.000000pt" height="700.000000pt" viewBox="0 0 700.000000 700.000000" preserveAspectRatio="xMidYMid meet">
<metadata>
Created by potrace 1.12, written by Peter Selinger 2001-2015
</metadata>
<g transform="translate(0.000000,700.000000) scale(0.100000,-0.100000)" fill="#000000" stroke="none">
<path d="M6460 6520 c-36 -10 -128 -39 -205 -64 -296 -99 -1071 -354 -1805
-596 -421 -139 -850 -280 -955 -315 -104 -34 -507 -167 -895 -295 -388 -128
-770 -254 -850 -280 -80 -26 -454 -150 -833 -275 -642 -212 -691 -230 -746
-271 -69 -52 -122 -126 -152 -209 -28 -81 -23 -204 12 -288 28 -68 112 -167
172 -201 39 -22 234 -109 997 -443 l285 -125 35 17 c19 9 89 47 155 85 66 37
415 231 775 430 573 318 2105 1167 2230 1237 25 14 126 70 225 126 275 153
316 167 396 133 124 -53 164 -194 88 -305 -19 -27 -522 -559 -1119 -1183 -597
-623 -1104 -1153 -1126 -1178 -36 -40 -45 -61 -83 -200 -56 -202 -115 -416
-156 -565 -19 -66 -59 -212 -90 -325 -31 -113 -65 -234 -75 -270 -45 -157 -90
-322 -90 -332 0 -5 6 -8 13 -6 6 2 254 184 549 406 295 221 541 402 547 402 5
0 36 -22 68 -48 63 -53 691 -566 888 -727 437 -357 425 -348 516 -375 152 -47
309 -2 421 118 67 73 91 122 122 254 14 57 39 162 56 233 18 72 40 166 50 210
10 44 93 400 185 790 92 391 176 746 186 790 28 119 88 373 115 490 8 33 22
96 33 140 174 740 477 2029 491 2090 10 44 30 130 45 190 14 61 35 147 46 191
26 111 24 193 -5 277 -50 140 -154 233 -303 272 -73 19 -132 18 -213 -5z"></path>
<path d="M4080 4131 c-14 -10 -416 -235 -895 -501 -478 -265 -984 -545 -1123
-622 -192 -107 -251 -144 -248 -157 2 -9 7 -32 11 -51 7 -37 62 -296 95 -445
19 -88 66 -302 116 -535 13 -63 31 -144 39 -180 25 -109 148 -683 153 -713 2
-15 7 -27 11 -27 4 0 38 114 75 253 38 138 90 329 116 422 27 94 69 247 95
340 25 94 52 190 60 215 7 25 25 88 39 140 67 250 106 382 122 412 9 18 51 69
93 113 269 284 1184 1240 1232 1288 33 33 59 61 59 63 0 10 -27 2 -50 -15z"></path>
</g>
</svg>