<svg class="svg-icon" style="width: 1em; height: 1em;vertical-align: middle;fill: currentColor;overflow: hidden;" viewBox="0 0 1024 1024" version="1.1" xmlns="http://www.w3.org/2000/svg"><path d="M992 256v32a16 16 0 0 1-16 16h-48v24c0 13.254-10.746 24-24 24H120c-13.254 0-24-10.746-24-24v-24H48a16 16 0 0 1-16-16v-32a16 16 0 0 1 9.882-14.784l464-176a15.992 15.992 0 0 1 12.236 0l464 176A16 16 0 0 1 992 256z m-48 608H80c-26.51 0-48 21.49-48 48v32a16 16 0 0 0 16 16h928a16 16 0 0 0 16-16v-32c0-26.51-21.49-48-48-48zM192 384v384H120c-13.254 0-24 10.746-24 24v40h832v-40c0-13.254-10.746-24-24-24h-72V384h-128v384h-128V384h-128v384h-128V384H192z" fill="" /></svg>