<svg width="200" height="200" viewBox="0 0 200 200" fill="none" xmlns="http://www.w3.org/2000/svg">
<g clip-path="url(#clip0_1_2)">
<path d="M53.724 99.116H71.82V78.056C71.82 74.728 71.092 72.388 69.636 71.036C68.284 69.58 65.944 68.852 62.616 68.852H53.724C50.396 68.852 48.056 69.58 46.704 71.036C45.352 72.388 44.676 74.728 44.676 78.056V90.068C44.676 93.292 45.352 95.632 46.704 97.088C48.056 98.44 50.396 99.116 53.724 99.116ZM65.736 152H32.82C30.532 152 29.388 150.908 29.388 148.724V137.96C29.388 135.88 30.532 134.84 32.82 134.84H62.616C65.944 134.84 68.284 134.164 69.636 132.812C70.988 131.356 71.664 128.964 71.664 125.636V116.276H50.448C42.232 116.276 35.888 114.092 31.416 109.724C26.944 105.356 24.708 99.116 24.708 91.004V77.12C24.708 68.904 26.944 62.612 31.416 58.244C35.888 53.876 42.232 51.692 50.448 51.692H65.736C73.952 51.692 80.296 53.876 84.768 58.244C89.24 62.612 91.476 68.904 91.476 77.12V126.572C91.476 134.788 89.24 141.08 84.768 145.448C80.296 149.816 73.952 152 65.736 152Z" fill="#3EC8AC"/>
<path d="M135.685 99.116H153.781V78.056C153.781 74.728 153.053 72.388 151.597 71.036C150.245 69.58 147.905 68.852 144.577 68.852H135.685C132.357 68.852 130.017 69.58 128.665 71.036C127.313 72.388 126.637 74.728 126.637 78.056V90.068C126.637 93.292 127.313 95.632 128.665 97.088C130.017 98.44 132.357 99.116 135.685 99.116ZM147.697 152H114.781C112.493 152 111.349 150.908 111.349 148.724V137.96C111.349 135.88 112.493 134.84 114.781 134.84H144.577C147.905 134.84 150.245 134.164 151.597 132.812C152.949 131.356 153.625 128.964 153.625 125.636V116.276H132.409C124.193 116.276 117.849 114.092 113.377 109.724C108.905 105.356 106.669 99.116 106.669 91.004V77.12C106.669 68.904 108.905 62.612 113.377 58.244C117.849 53.876 124.193 51.692 132.409 51.692H147.697C155.913 51.692 162.257 53.876 166.729 58.244C171.201 62.612 173.437 68.904 173.437 77.12V126.572C173.437 134.788 171.201 141.08 166.729 145.448C162.257 149.816 155.913 152 147.697 152Z" fill="#4E90A4"/>
</g>
<defs>
<clipPath id="clip0_1_2">
<rect width="200" height="200" fill="white"/>
</clipPath>
</defs>
</svg>
